<svg width="23" height="18" viewBox="0 0 23 18" fill="none" xmlns="http://www.w3.org/2000/svg">
<g id="icon_gifts 1" clip-path="url(#clip0_1_507)">
<path id="Vector" d="M23 4.96898H20.913H18.723C20.104 2.55998 18.302 -0.125015 15.588 0.00398488C14.377 0.0609849 13.309 0.739985 12.729 1.82298L11.482 4.16498L10.234 1.82098C9.656 0.739985 8.588 0.0609849 7.377 0.00498488C4.664 -0.123015 2.897 2.55998 4.278 4.96998H2.094H0V7.09198L2.009 7.09498L1.991 15.878C1.991 17.05 2.927 18 4.082 18L18.804 17.997C19.959 17.997 20.895 17.047 20.895 15.875L20.913 7.09198H23V4.96898ZM14.217 2.64198C14.51 2.09399 15.052 1.74998 15.666 1.72098C17.002 1.65798 17.93 3.09798 17.278 4.33698C16.983 4.89698 16.465 4.93898 15.853 4.97098H12.839L14.217 2.64198ZM5.686 4.33598C5.049 3.12298 5.923 1.71798 7.216 1.71798C7.244 1.71798 7.271 1.71898 7.299 1.71998C7.913 1.74898 8.454 2.09299 8.747 2.63999L10.161 4.96998H7.147C6.535 4.93798 5.981 4.89598 5.686 4.33598ZM18.804 15.874L4.082 15.878L4.1 7.09498L18.822 7.09198L18.804 15.874Z" fill="black"/>
</g>
<defs>
<clipPath id="clip0_1_507">
<rect width="23" height="18" fill="white"/>
</clipPath>
</defs>
</svg>
